<?xml version="1.0" encoding="UTF-8" standalone="no"?>
<!-- Generated by IcoMoon.io -->

<svg
   xmlns:dc="http://purl.org/dc/elements/1.1/"
   xmlns:cc="http://creativecommons.org/ns#"
   xmlns:rdf="http://www.w3.org/1999/02/22-rdf-syntax-ns#"
   xmlns:svg="http://www.w3.org/2000/svg"
   xmlns="http://www.w3.org/2000/svg"
   xmlns:sodipodi="http://sodipodi.sourceforge.net/DTD/sodipodi-0.dtd"
   xmlns:inkscape="http://www.inkscape.org/namespaces/inkscape"
   version="1.1"
   width="42"
   height="42"
   viewBox="0 0 42 42"
   id="svg6"
   sodipodi:docname="logo-basket.svg"
   inkscape:version="0.92.2 (unknown)">
  <metadata
     id="metadata12">
    <rdf:RDF>
      <cc:Work
         rdf:about="">
        <dc:format>image/svg+xml</dc:format>
        <dc:type
           rdf:resource="http://purl.org/dc/dcmitype/StillImage" />
        <dc:title>basket</dc:title>
      </cc:Work>
    </rdf:RDF>
  </metadata>
  <defs
     id="defs10" />
  <sodipodi:namedview
     pagecolor="#ffffff"
     bordercolor="#666666"
     borderopacity="1"
     objecttolerance="10"
     gridtolerance="10"
     guidetolerance="10"
     inkscape:pageopacity="0"
     inkscape:pageshadow="2"
     inkscape:window-width="1855"
     inkscape:window-height="1056"
     id="namedview8"
     showgrid="false"
     inkscape:zoom="6.6190476"
     inkscape:cx="29.264283"
     inkscape:cy="21.495739"
     inkscape:window-x="1985"
     inkscape:window-y="170"
     inkscape:window-maximized="1"
     inkscape:current-layer="svg6" />
  <title
     id="title2">basket</title>
  <g
     id="g2282">
    <path
       style="fill:#008080;stroke-width:1.04373264"
       sodipodi:nodetypes="sssccssccsscssccccssssssssccccccsssssssscscccccc"
       inkscape:connector-curvature="0"
       id="path4"
       d="M 40.378995,19.304247 H 1.7608855 c -0.16073,0 -0.31312,0.0741 -0.41227,0.200396 -0.0992,0.126292 -0.1336,0.291202 -0.095,0.447762 l 4.18119,16.717466 c 0.1002,0.351738 0.4081,1.421564 1.54473,1.421564 H 35.160315 c 1.1408,0 1.44557,-1.070869 1.54994,-1.439307 l 4.17493,-16.699723 c 0.0386,-0.155516 0.004,-0.32147 -0.095,-0.447762 -0.0991,-0.126291 -0.25049,-0.200396 -0.41123,-0.200396 z m -4.67592,17.078598 c -0.18996,0.664858 -0.38618,0.664858 -0.54274,0.664858 H 6.9795555 c -0.15552,0 -0.3507,0 -0.53753,-0.648158 L 2.4299155,20.347979 H 39.711005 Z m -17.24247,-2.46634 c 0.28808,0 0.52187,-0.233797 0.52187,-0.521867 v -9.393594 c 0,-0.28807 -0.23379,-0.521867 -0.52187,-0.521867 -0.28807,0 -0.52186,0.233797 -0.52186,0.521867 v 9.393594 c 0,0.28807 0.23379,0.521867 0.52186,0.521867 z m -7.30717,0 c 0.0198,0 0.0386,-10e-4 0.0595,-0.0031 0.28599,-0.03236 0.49264,-0.290157 0.46029,-0.57614 l -1.04373,-9.393594 c -0.0313,-0.287027 -0.28181,-0.489511 -0.57719,-0.46133 -0.2859795,0.03235 -0.4926395,0.290157 -0.4602795,0.57614 l 1.0437295,9.393594 c 0.0292,0.267196 0.25571,0.464462 0.51769,0.464462 z m 13.56957,0 c 0.28807,0 0.52187,-0.233797 0.52187,-0.521867 v -9.393594 c 0,-0.28807 -0.2338,-0.521867 -0.52187,-0.521867 -0.28807,0 -0.52186,0.233797 -0.52186,0.521867 v 9.393594 c 0,0.28807 0.23379,0.521867 0.52186,0.521867 z m 6.20395,-0.0031 c 0.0209,0.0021 0.0397,0.0031 0.0595,0.0031 0.26198,0 0.48847,-0.197266 0.51769,-0.464462 l 1.04373,-9.393594 c 0.0313,-0.285983 -0.1743,-0.543785 -0.46028,-0.57614 -0.29956,-0.02923 -0.54483,0.174303 -0.57719,0.46133 l -1.04373,9.393594 c -0.0313,0.285983 0.1743,0.543785 0.46029,0.57614 z" />
    <path
       inkscape:connector-curvature="0"
       id="path112"
       style="fill:#17a8cc;fill-opacity:1;fill-rule:nonzero;stroke:none;stroke-width:0.01195481"
       d="m 32.873931,18.828004 -0.703719,-2.439559 5.292475,-8.7397767 3.225611,2.7289957 -7.814367,8.45034" />
    <path
       inkscape:connector-curvature="0"
       id="path112-3"
       style="fill:#e870c3;fill-opacity:1;fill-rule:nonzero;stroke:none;stroke-width:0.01090385"
       d="M 8.5682414,18.173641 6.7092196,17.755869 2.7585753,8.3380073 5.6836695,6.3333604 8.5682414,18.173641" />
    <path
       inkscape:connector-curvature="0"
       id="path118"
       style="fill:#70d0e8;fill-opacity:1;fill-rule:nonzero;stroke:none;stroke-width:0.01244804"
       d="M 14.243453,4.522952 10.889206,4.6728935 14.112572,17.083588 15.62674,15.794703 14.243453,4.522952" />
    <path
       inkscape:connector-curvature="0"
       id="path118-6"
       style="fill:#e8cd70;fill-opacity:1;fill-rule:nonzero;stroke:none;stroke-width:0.01194674"
       d="M 31.267752,6.2046821 28.613236,3.7724018 26.756,16.682877 l 1.627079,0.06953 2.884673,-10.5477289" />
    <path
       inkscape:connector-curvature="0"
       id="path118-6-7"
       style="fill:#c783c8;fill-opacity:1;fill-rule:nonzero;stroke:none;stroke-width:0.0127305"
       d="M 23.052822,4.1254772 19.624,3.1107273 20.649341,16.259598 22.417946,15.533538 23.052821,4.1254734" />
  </g>
</svg>
