<?xml version="1.0" encoding="UTF-8" standalone="no"?>
<svg
   xmlns:dc="http://purl.org/dc/elements/1.1/"
   xmlns:cc="http://creativecommons.org/ns#"
   xmlns:rdf="http://www.w3.org/1999/02/22-rdf-syntax-ns#"
   xmlns:svg="http://www.w3.org/2000/svg"
   xmlns="http://www.w3.org/2000/svg"
   id="svg8"
   version="1.1"
   viewBox="0 0 136 26.73"
   height="26.73"
   width="136">
  <defs
     id="defs2" />
  <metadata
     id="metadata5">
    <rdf:RDF>
      <cc:Work
         rdf:about="">
        <dc:format>image/svg+xml</dc:format>
        <dc:type
           rdf:resource="http://purl.org/dc/dcmitype/StillImage" />
        <dc:title></dc:title>
      </cc:Work>
    </rdf:RDF>
  </metadata>
  <g
     transform="translate(-0.54220999,-199.9043)"
     id="layer1">
    <g
       transform="matrix(0.99554631,0,0,0.99554631,-67.730289,18.321746)"
       id="g938">
      <g
         id="g1044">
        <g
           aria-label="SALE"
           style="font-style:normal;font-variant:normal;font-weight:bold;font-stretch:normal;font-size:36.64245224px;line-height:0;font-family:'Roboto Condensed';-inkscape-font-specification:'Roboto Condensed, Bold';letter-spacing:0px;word-spacing:0px;fill:#ff1450;fill-opacity:1;stroke:none;stroke-width:0.91606122"
           id="text817">
          <path
             d="m 80.350743,202.05195 q 0,-1.59237 -0.823024,-2.3975 -0.805132,-0.82303 -2.95215,-1.69973 -3.91831,-1.48502 -5.635924,-3.47101 -1.717615,-2.00388 -1.717615,-4.72344 0,-3.2921 2.325937,-5.27809 2.343828,-2.00388 5.940085,-2.00388 2.397504,0 4.276145,1.01983 1.878641,1.00194 2.880583,2.8448 1.019834,1.84286 1.019834,4.18669 H 80.42231 q 0,-1.82497 -0.78724,-2.77324 -0.769348,-0.96615 -2.236478,-0.96615 -1.37767,0 -2.147018,0.82302 -0.769349,0.80513 -0.769349,2.1828 0,1.07351 0.858808,1.95021 0.858807,0.85881 3.04161,1.78918 3.810958,1.37767 5.528573,3.38156 1.735507,2.00388 1.735507,5.09917 0,3.39944 -2.164911,5.31387 -2.16491,1.91442 -5.88641,1.91442 -2.522746,0 -4.598198,-1.03772 -2.075451,-1.03773 -3.256312,-2.97004 -1.162968,-1.93232 -1.162968,-4.56242 h 5.278088 q 0,2.25437 0.876699,3.2742 0.876699,1.01984 2.862691,1.01984 2.755341,0 2.755341,-2.91637 z"
             style="font-style:normal;font-variant:normal;font-weight:bold;font-stretch:normal;font-family:'Roboto Condensed';-inkscape-font-specification:'Roboto Condensed, Bold';fill:#ff1450;fill-opacity:1;stroke-width:0.91606122"
             id="path1019" />
          <path
             d="m 101.60623,203.55486 h -7.174623 l -1.395562,5.33177 h -5.564357 l 8.140779,-26.0505 h 4.812903 l 8.19445,26.0505 h -5.61803 z m -6.029547,-4.38349 h 4.866577 l -2.433289,-9.28586 z"
             style="font-style:normal;font-variant:normal;font-weight:bold;font-stretch:normal;font-family:'Roboto Condensed';-inkscape-font-specification:'Roboto Condensed, Bold';fill:#ff1450;fill-opacity:1;stroke-width:0.91606122"
             id="path1021" />
          <path
             d="m 116.3312,204.52102 h 9.23218 v 4.36561 H 111.071 v -26.0505 h 5.2602 z"
             style="font-style:normal;font-variant:normal;font-weight:bold;font-stretch:normal;font-family:'Roboto Condensed';-inkscape-font-specification:'Roboto Condensed, Bold';fill:#ff1450;fill-opacity:1;stroke-width:0.91606122"
             id="path1023" />
          <path
             d="m 142.05964,197.61478 h -8.19446 v 6.90624 h 9.69737 v 4.36561 h -14.95756 v -26.0505 h 14.92178 v 4.3835 h -9.66159 v 6.15479 h 8.19446 z"
             style="font-style:normal;font-variant:normal;font-weight:bold;font-stretch:normal;font-family:'Roboto Condensed';-inkscape-font-specification:'Roboto Condensed, Bold';fill:#ff1450;fill-opacity:1;stroke-width:0.91606122"
             id="path1025" />
        </g>
        <g
           aria-label="TAG"
           style="font-style:normal;font-variant:normal;font-weight:bold;font-stretch:normal;font-size:36.64245224px;line-height:0;font-family:'Roboto Condensed';-inkscape-font-specification:'Roboto Condensed, Bold';letter-spacing:0px;word-spacing:0px;fill:#000000;fill-opacity:1;stroke:none;stroke-width:0.91606122"
           id="text817-7">
          <path
             d="m 165.05498,187.1362 h -6.44106 v 21.66699 h -5.27809 V 187.1362 h -6.3337 v -4.3835 h 18.05285 z"
             style="font-style:normal;font-variant:normal;font-weight:bold;font-stretch:normal;font-family:'Roboto Condensed';-inkscape-font-specification:'Roboto Condensed,  Bold';stroke-width:0.91606122"
             id="path1028" />
          <path
             d="m 178.36649,203.47143 h -7.17462 l -1.39556,5.33176 h -5.56436 l 8.14078,-26.05049 h 4.8129 l 8.19446,26.05049 h -5.61803 z m -6.02954,-4.3835 h 4.86657 l -2.43328,-9.28585 z"
             style="font-style:normal;font-variant:normal;font-weight:bold;font-stretch:normal;font-family:'Roboto Condensed';-inkscape-font-specification:'Roboto Condensed,  Bold';stroke-width:0.91606122"
             id="path1030" />
          <path
             d="m 205.18634,205.85104 q -1.52081,1.64605 -3.73939,2.48696 -2.2007,0.82303 -4.8308,0.82303 -4.49084,0 -6.97781,-2.77323 -2.48696,-2.79113 -2.55853,-8.105 v -4.68766 q 0,-5.38544 2.34383,-8.28391 2.36172,-2.91637 6.87046,-2.91637 4.24036,0 6.38738,2.09335 2.16491,2.09334 2.50486,6.56629 h -5.11707 q -0.2147,-2.48696 -1.03772,-3.38155 -0.82302,-0.91248 -2.57642,-0.91248 -2.12913,0 -3.09529,1.55659 -0.96616,1.55658 -1.00194,4.95603 v 4.72344 q 0,3.56047 1.05562,5.18863 1.07351,1.61026 3.50679,1.61026 1.55659,0 2.52275,-0.62621 l 0.46519,-0.32205 v -4.77712 h -3.68572 v -3.97198 h 8.96381 z"
             style="font-style:normal;font-variant:normal;font-weight:bold;font-stretch:normal;font-family:'Roboto Condensed';-inkscape-font-specification:'Roboto Condensed,  Bold';stroke-width:0.91606122"
             id="path1032" />
        </g>
      </g>
    </g>
  </g>
</svg>
