<?xml version="1.0" encoding="UTF-8"?>
<svg width="148px" height="31px" viewBox="0 0 148 31" version="1.1" xmlns="http://www.w3.org/2000/svg" xmlns:xlink="http://www.w3.org/1999/xlink">
    <!-- Generator: Sketch 55.2 (78181) - https://sketchapp.com -->
    <title>Group</title>
    <desc>Created with Sketch.</desc>
    <defs>
        <path d="M10.0305011,10.0046858 C9.60791106,10.2260053 9.08950971,10.0297136 8.87296747,9.56626685 C8.65621929,9.10304282 8.82305312,8.54821406 9.24584914,8.32667181 C9.66844222,8.10557817 10.1868406,8.30164397 10.4035917,8.76509386 C10.620131,9.22831477 10.4530882,9.78314042 10.0305011,10.0046858 Z" id="path-1"></path>
        <filter x="-87.2%" y="-80.7%" width="274.4%" height="368.4%" filterUnits="objectBoundingBox" id="filter-2">
            <feOffset dx="0" dy="2" in="SourceAlpha" result="shadowOffsetOuter1"></feOffset>
            <feGaussianBlur stdDeviation="0.5" in="shadowOffsetOuter1" result="shadowBlurOuter1"></feGaussianBlur>
            <feComposite in="shadowBlurOuter1" in2="SourceAlpha" operator="out" result="shadowBlurOuter1"></feComposite>
            <feColorMatrix values="0 0 0 0 0   0 0 0 0 0   0 0 0 0 0  0 0 0 0.5 0" type="matrix" in="shadowBlurOuter1"></feColorMatrix>
        </filter>
        <filter x="-232.5%" y="-215.1%" width="565.0%" height="637.3%" filterUnits="objectBoundingBox" id="filter-3">
            <feMorphology radius="3" operator="erode" in="SourceAlpha" result="shadowSpreadInner1"></feMorphology>
            <feGaussianBlur stdDeviation="1.5" in="shadowSpreadInner1" result="shadowBlurInner1"></feGaussianBlur>
            <feOffset dx="0" dy="1" in="shadowBlurInner1" result="shadowOffsetInner1"></feOffset>
            <feComposite in="shadowOffsetInner1" in2="SourceAlpha" operator="arithmetic" k2="-1" k3="1" result="shadowInnerInner1"></feComposite>
            <feColorMatrix values="0 0 0 0 1   0 0 0 0 1   0 0 0 0 1  0 0 0 1 0" type="matrix" in="shadowInnerInner1"></feColorMatrix>
        </filter>
    </defs>
    <g id="SaleTag" stroke="none" stroke-width="1" fill="none" fill-rule="evenodd">
        <g id="Group" transform="translate(-3.392088, -2.462233)">
            <g id="Combined-Shape-2" transform="translate(11.500000, 15.000000) rotate(13.000000) translate(-11.500000, -15.000000) translate(3.000000, 2.000000)">
                <path d="M10.7488443,7.48709063 C10.7218366,7.48669995 10.6943837,7.48049061 10.6673456,7.46753628 C10.548301,7.41035207 10.4866776,7.24640978 10.5299344,7.10094629 C10.6026977,6.85555016 12.3571296,1.08935552 16.1844718,0.95703384 C16.3129611,0.952518077 16.4190046,1.07564905 16.4260278,1.23177965 C16.4329247,1.38775507 16.3359709,1.5179015 16.2094711,1.52229131 C12.681899,1.64433139 10.9780157,7.2508947 10.9611675,7.3075828 C10.927833,7.42004346 10.8414423,7.48835193 10.7488443,7.48709063" id="Fill-59" fill="#3F3E3D" transform="translate(13.471240, 4.222002) rotate(7.000000) translate(-13.471240, -4.222002) "></path>
                <path d="M10.1293925,7.27976684 L5.74086605,9.7437712 C5.07373147,10.1184123 4.56859563,10.7636178 4.33576051,11.5388295 L1.76174779,20.1243712 C1.47143926,21.0903278 1.94906947,22.1280139 2.83340885,22.4518103 L9.24492186,24.7991082 C9.97163309,25.0654069 10.762213,24.6475535 11.0202839,23.8612078 L13.8025206,15.2481736 C14.1199192,14.2817224 14.0784723,13.2195896 13.6868991,12.2886474 L11.8501545,7.92222556 C11.5519111,7.21349682 10.768365,6.92079296 10.1293925,7.27976684 L10.1293925,7.27976684 Z" id="Path" fill="#3F3E3D" transform="translate(7.845327, 16.002739) rotate(-5.000000) translate(-7.845327, -16.002739) "></path>
                <g id="Path" transform="translate(9.638192, 9.165728) rotate(7.000000) translate(-9.638192, -9.165728) ">
                    <use fill="black" fill-opacity="1" filter="url(#filter-2)" xlink:href="#path-1"></use>
                    <use fill="#3F3E3D" fill-rule="evenodd" xlink:href="#path-1"></use>
                    <use fill="black" fill-opacity="1" filter="url(#filter-3)" xlink:href="#path-1"></use>
                    <use stroke-opacity="0.917422421" stroke="#000000" stroke-width="1" xlink:href="#path-1"></use>
                </g>
            </g>
            <g id="Fill-58" transform="translate(11.597329, 15.645616) rotate(13.000000) translate(-11.597329, -15.645616) translate(6.597329, 11.145616)" fill="#C0C0BB">
                <g id="Fill-60" transform="translate(4.972848, 4.193761) rotate(-2.000000) translate(-4.972848, -4.193761) translate(0.972848, 0.193761)">
                    <path d="M1.47232692,2.10050575 L0.888888889,1.74213853 L1.03026549,1 L1.61370353,1.35836721 L1.47232692,2.10050575 Z M2.9219562,3.20101149 L2.33851816,2.8432116 L2.48008352,2.10050575 L3.0633328,2.45864447 L2.9219562,3.20101149 Z M4.37139672,4.30151724 L3.78814744,3.94348875 L3.92952405,3.20101149 L4.51296208,3.55903999 L4.37139672,4.30151724 Z M5.82121475,5.40202299 L5.23777672,5.04365577 L5.37934207,4.30151724 L5.96259135,4.65988446 L5.82121475,5.40202299 Z M7.27084402,6.50252874 L6.68740599,6.14416152 L6.82897135,5.40202299 L7.41222063,5.7603902 L7.27084402,6.50252874 L7.27084402,6.50252874 Z" id="Fill-57" transform="translate(4.150555, 3.751264) rotate(-16.000000) translate(-4.150555, -3.751264) "></path>
                </g>
            </g>
            <path d="M29.9664831,25.1320195 C29.9664831,23.9025125 29.6997001,22.9734888 29.166126,22.3449206 C28.632552,21.7163524 27.6621653,21.0636183 26.254937,20.3866987 C23.6867454,19.2400798 21.8397859,17.8966217 20.7140033,16.3562842 C19.5882206,14.8159468 19.0253378,12.9958892 19.0253378,10.896057 C19.0253378,8.35415477 19.7905067,6.31306556 21.3208675,4.77272809 C22.8512282,3.23239062 24.7949332,2.46223343 27.1520406,2.46223343 C28.7234455,2.46223343 30.1247894,2.85249246 31.3561141,3.6330222 C32.5874389,4.41355195 33.5343721,5.51525662 34.1969421,6.93816926 C34.859512,8.3610819 35.1907921,9.9773759 35.1907921,11.7870997 L30.0368442,11.7870997 C30.0368442,10.3780018 29.7817879,9.30392608 29.2716676,8.56484039 C28.7615474,7.82575469 28.0256953,7.45621739 27.0640893,7.45621739 C26.1611178,7.45621739 25.4575142,7.77049678 24.9532574,8.39906499 C24.4490005,9.02763319 24.1968759,9.87377001 24.1968759,10.9375008 C24.1968759,11.766382 24.4783174,12.5158174 25.0412087,13.1858297 C25.6041,13.855842 26.6008718,14.5500195 28.0315539,15.2683832 C30.5293841,16.332114 32.3440951,17.6375822 33.4757412,19.184827 C34.6073872,20.7320718 35.1732018,22.700635 35.1732018,25.0905757 C35.1732018,27.715366 34.4637348,29.7668161 33.0447796,31.2449874 C31.6258244,32.7231588 29.6967779,33.4622334 27.2575822,33.4622334 C25.6040889,33.4622334 24.0972046,33.0616136 22.7368839,32.2603618 C21.3765632,31.45911 20.3123627,30.3125083 19.5442506,28.8205222 C18.7761385,27.3285361 18.3920882,25.5671901 18.3920882,23.5364313 L23.5812166,23.5364313 C23.5812166,25.2770817 23.8685214,26.5411065 24.4431396,27.3285436 C25.0177579,28.1159807 25.955896,28.5096933 27.2575822,28.5096933 C29.0635252,28.5096933 29.9664831,27.3838133 29.9664831,25.1320195 Z M50.8285384,26.8726612 L43.7748418,26.8726612 L42.4028011,33.0477949 L36.9322284,33.0477949 L44.9357993,2.87667194 L49.6675809,2.87667194 L57.7239226,33.0477949 L52.2005791,33.0477949 L50.8285384,26.8726612 Z M44.9006188,21.7957896 L49.6851711,21.7957896 L47.292895,11.0411104 L44.9006188,21.7957896 Z M65.2877369,27.9916452 L74.3643141,27.9916452 L74.3643141,33.0477949 L60.1161988,33.0477949 L60.1161988,2.87667194 L65.2877369,2.87667194 L65.2877369,27.9916452 Z M90.5825392,19.9929821 L82.5261974,19.9929821 L82.5261974,27.9916452 L92.0601215,27.9916452 L92.0601215,33.0477949 L77.3546593,33.0477949 L77.3546593,2.87667194 L92.024941,2.87667194 L92.024941,7.95354359 L82.5261974,7.95354359 L82.5261974,15.0818858 L90.5825392,15.0818858 L90.5825392,19.9929821 Z M111.972302,7.95354359 L105.639807,7.95354359 L105.639807,33.0477949 L100.450678,33.0477949 L100.450678,7.95354359 L94.2237242,7.95354359 L94.2237242,2.87667194 L111.972302,2.87667194 L111.972302,7.95354359 Z M125.05946,26.8726612 L118.005764,26.8726612 L116.633723,33.0477949 L111.16315,33.0477949 L119.166721,2.87667194 L123.898503,2.87667194 L131.954844,33.0477949 L126.431501,33.0477949 L125.05946,26.8726612 Z M119.131541,21.7957896 L123.916093,21.7957896 L121.523817,11.0411104 L119.131541,21.7957896 Z M151.392088,29.6286773 C150.395301,30.8996284 149.17279,31.856281 147.724518,32.4986639 C146.276245,33.1410468 144.690206,33.4622334 142.966351,33.4622334 C140.022898,33.4622334 137.736187,32.3881577 136.106147,30.2399741 C134.476108,28.0917904 133.637647,24.9662646 133.590739,20.863303 L133.590739,15.4341586 C133.590739,11.2759381 134.361771,8.07443272 135.903859,5.82954627 C137.445947,3.58465982 139.694547,2.46223343 142.649726,2.46223343 C145.429002,2.46223343 147.525154,3.27038043 148.938246,4.88669868 C150.351338,6.50301692 151.169277,9.03797374 151.392088,12.4916452 L146.361272,12.4916452 C146.220549,10.5714039 145.880474,9.26248202 145.341037,8.56484039 C144.801599,7.86719875 143.957275,7.51838317 142.808038,7.51838317 C141.412537,7.51838317 140.398175,8.11931299 139.764922,9.32119065 C139.13167,10.5230683 138.803321,12.4363736 138.779868,15.0611639 L138.779868,20.5317522 C138.779868,23.2808746 139.128738,25.2805204 139.826488,26.5307495 C140.524239,27.7809785 141.670527,28.4060837 143.265385,28.4060837 C144.285626,28.4060837 145.11236,28.1643303 145.745613,27.6808163 L146.20296,27.3078217 L146.20296,21.7750677 L142.579365,21.7750677 L142.579365,17.1748003 L151.392088,17.1748003 L151.392088,29.6286773 Z" id="SALETAG" fill="#FF1250" fill-rule="nonzero"></path>
            <g id="%-2" transform="translate(9.392088, 19.962233) rotate(216.000000) translate(-9.392088, -19.962233) translate(7.392088, 16.462233)" fill="#FFFFFF" fill-rule="nonzero">
                <path d="M2.74473068,5.97503374 C2.74473068,6.29307401 2.86338679,6.45209177 3.10070258,6.45209177 C3.33801836,6.45209177 3.45667447,6.29307401 3.45667447,5.97503374 L3.45667447,5.45546559 C3.45667447,5.13742531 3.33801836,4.97840756 3.10070258,4.97840756 C2.86338679,4.97840756 2.74473068,5.13742531 2.74473068,5.45546559 L2.74473068,5.97503374 Z M2.19672131,5.38461538 C2.20296646,5.05083054 2.29976487,4.80679339 2.48711944,4.65249663 C2.65886112,4.50449769 2.86338679,4.43049933 3.10070258,4.43049933 C3.34426351,4.43049933 3.55503424,4.50449769 3.73302108,4.65249663 C3.90476276,4.80679339 3.99375485,5.05083054 4,5.38461538 L4,6.04588394 C4,6.21277636 3.9781423,6.35447535 3.93442623,6.47098516 C3.89071016,6.59379279 3.82357578,6.69298208 3.73302108,6.76855601 C3.55503424,6.92285277 3.34426351,7 3.10070258,7 C2.86338679,7 2.65886112,6.92285277 2.48711944,6.76855601 C2.29976487,6.62055706 2.20296646,6.37966879 2.19672131,6.04588394 L2.19672131,5.38461538 Z M0,0.954116059 C0.00624515222,0.620331215 0.10304356,0.376294069 0.290398126,0.221997301 C0.462139813,0.0739983603 0.66666548,0 0.903981265,0 C1.1475422,0 1.35831293,0.0739983603 1.53629977,0.221997301 C1.70804145,0.376294069 1.79703354,0.620331215 1.80327869,0.954116059 L1.80327869,1.61538462 C1.80327869,1.78227704 1.78142098,1.92397603 1.73770492,2.04048583 C1.69398885,2.16329346 1.62685447,2.26248275 1.53629977,2.33805668 C1.35831293,2.49235345 1.1475422,2.56950067 0.903981265,2.56950067 C0.66666548,2.56950067 0.462139813,2.49235345 0.290398126,2.33805668 C0.10304356,2.19005774 0.00624515222,1.94916946 0,1.61538462 L0,0.954116059 Z M0.548009368,1.54453441 C0.548009368,1.86257469 0.66666548,2.02159244 0.903981265,2.02159244 C1.14129705,2.02159244 1.25995316,1.86257469 1.25995316,1.54453441 L1.25995316,1.02496626 C1.25995316,0.706925985 1.14129705,0.547908232 0.903981265,0.547908232 C0.66666548,0.547908232 0.548009368,0.706925985 0.548009368,1.02496626 L0.548009368,1.54453441 Z M3.30210773,0.0566801619 L3.93442623,0.0566801619 L0.702576112,6.94331984 L0.0702576112,6.94331984 L3.30210773,0.0566801619 Z" id="%"></path>
            </g>
        </g>
    </g>
</svg>